<svg id="svg" version="1.1" xmlns="http://www.w3.org/2000/svg" xmlns:xlink="http://www.w3.org/1999/xlink" width="400" height="400" viewBox="0, 0, 400,400"><g id="svgg"><path id="path0" d="M156.000 0.513 C 155.450 0.789,154.822 1.416,154.605 1.907 C 154.388 2.398,154.073 2.800,153.905 2.800 C 153.737 2.800,153.600 3.160,153.600 3.600 C 153.600 4.040,153.420 4.400,153.200 4.400 C 152.980 4.400,152.800 4.634,152.800 4.920 C 152.800 5.656,151.859 7.593,151.500 7.597 C 151.335 7.599,151.200 7.960,151.200 8.400 C 151.200 8.840,151.020 9.200,150.800 9.200 C 150.580 9.200,150.400 9.465,150.400 9.788 C 150.400 10.111,150.040 11.017,149.600 11.800 C 149.160 12.583,148.800 13.489,148.800 13.812 C 148.800 14.135,148.620 14.400,148.400 14.400 C 148.180 14.400,148.000 14.575,148.000 14.790 C 148.000 15.242,146.472 18.614,143.846 23.957 C 142.831 26.024,142.000 27.959,142.000 28.257 C 142.000 28.556,141.820 28.800,141.600 28.800 C 141.380 28.800,141.200 29.149,141.200 29.576 C 141.200 30.003,141.020 30.464,140.800 30.600 C 140.580 30.736,140.400 31.197,140.400 31.624 C 140.400 32.051,140.220 32.400,140.000 32.400 C 139.780 32.400,139.600 32.760,139.600 33.200 C 139.600 33.640,139.420 34.000,139.200 34.000 C 138.980 34.000,138.800 34.360,138.800 34.800 C 138.800 35.240,138.620 35.600,138.400 35.600 C 138.180 35.600,138.000 35.960,138.000 36.400 C 138.000 36.840,137.820 37.200,137.600 37.200 C 137.380 37.200,137.200 37.560,137.200 38.000 C 137.200 38.440,137.020 38.800,136.800 38.800 C 136.580 38.800,136.400 39.053,136.400 39.362 C 136.400 40.167,134.769 43.193,133.634 44.493 C 132.488 45.806,130.256 45.972,127.005 44.986 C 125.908 44.654,124.648 44.310,124.205 44.222 C 123.762 44.135,122.612 43.779,121.650 43.432 C 120.687 43.084,119.472 42.800,118.950 42.800 C 118.427 42.800,118.000 42.620,118.000 42.400 C 118.000 42.180,117.370 42.000,116.600 42.000 C 115.830 42.000,115.200 41.820,115.200 41.600 C 115.200 41.380,114.559 41.200,113.776 41.200 C 112.929 41.200,112.453 41.038,112.600 40.800 C 112.744 40.567,112.345 40.400,111.647 40.400 C 110.987 40.400,110.336 40.220,110.200 40.000 C 110.064 39.780,109.333 39.600,108.576 39.600 C 107.819 39.600,107.200 39.420,107.200 39.200 C 107.200 38.980,106.660 38.800,106.000 38.800 C 105.340 38.800,104.800 38.620,104.800 38.400 C 104.800 38.180,104.271 38.000,103.624 38.000 C 102.977 38.000,102.336 37.820,102.200 37.600 C 102.064 37.380,101.434 37.200,100.800 37.200 C 100.166 37.200,99.536 37.020,99.400 36.800 C 99.264 36.580,98.623 36.400,97.976 36.400 C 97.329 36.400,96.800 36.220,96.800 36.000 C 96.800 35.780,96.271 35.600,95.624 35.600 C 94.977 35.600,94.336 35.420,94.200 35.200 C 94.064 34.980,93.423 34.800,92.776 34.800 C 92.129 34.800,91.600 34.620,91.600 34.400 C 91.600 34.180,91.071 34.000,90.424 34.000 C 89.777 34.000,89.136 33.820,89.000 33.600 C 88.864 33.380,88.169 33.200,87.456 33.200 C 86.743 33.200,85.971 33.011,85.739 32.779 C 85.070 32.110,82.076 33.220,80.602 34.685 C 78.922 36.356,78.817 37.133,78.594 49.600 C 78.494 55.210,78.313 62.770,78.192 66.400 C 78.071 70.030,77.902 75.384,77.818 78.298 C 77.579 86.526,76.645 88.000,71.665 88.000 C 70.529 88.000,69.600 88.180,69.600 88.400 C 69.600 88.631,68.341 88.800,66.624 88.800 C 64.987 88.800,63.536 88.980,63.400 89.200 C 63.264 89.420,62.004 89.600,60.600 89.600 C 59.196 89.600,57.936 89.780,57.800 90.000 C 57.664 90.220,56.303 90.400,54.776 90.400 C 53.192 90.400,52.000 90.572,52.000 90.800 C 52.000 91.031,50.733 91.200,49.000 91.200 C 47.350 91.200,46.000 91.366,46.000 91.570 C 46.000 91.773,44.605 92.021,42.900 92.122 C 39.736 92.309,37.504 92.530,33.600 93.044 C 32.390 93.204,31.100 93.295,30.734 93.248 C 29.842 93.132,27.200 94.257,27.200 94.753 C 27.200 94.969,26.840 95.260,26.400 95.400 C 25.960 95.540,25.600 95.912,25.600 96.227 C 25.600 96.542,25.420 96.800,25.200 96.800 C 24.971 96.800,24.800 98.000,24.800 99.600 C 24.800 101.200,24.971 102.400,25.200 102.400 C 25.420 102.400,25.600 102.668,25.600 102.996 C 25.600 103.612,27.120 107.726,28.444 110.696 C 28.860 111.628,29.200 112.663,29.200 112.996 C 29.200 113.328,29.380 113.600,29.600 113.600 C 29.820 113.600,30.000 113.949,30.000 114.376 C 30.000 114.803,30.180 115.264,30.400 115.400 C 30.620 115.536,30.800 115.997,30.800 116.424 C 30.800 116.851,30.980 117.200,31.200 117.200 C 31.420 117.200,31.600 117.472,31.600 117.805 C 31.600 118.138,31.759 118.723,31.953 119.105 C 32.148 119.487,32.490 120.250,32.713 120.800 C 32.937 121.350,33.498 122.653,33.960 123.696 C 34.422 124.738,34.800 125.863,34.800 126.196 C 34.800 126.528,34.980 126.800,35.200 126.800 C 35.420 126.800,35.600 127.072,35.600 127.405 C 35.600 127.738,35.780 128.368,36.000 128.805 C 36.220 129.242,36.580 129.958,36.800 130.395 C 37.020 130.832,37.200 131.462,37.200 131.795 C 37.200 132.128,37.380 132.400,37.600 132.400 C 37.820 132.400,38.000 132.850,38.000 133.400 C 38.000 133.950,38.180 134.400,38.400 134.400 C 38.620 134.400,38.800 134.850,38.800 135.400 C 38.800 135.950,38.980 136.400,39.200 136.400 C 39.420 136.400,39.600 136.850,39.600 137.400 C 39.600 137.950,39.780 138.400,40.000 138.400 C 40.220 138.400,40.400 138.760,40.400 139.200 C 40.400 139.640,40.547 140.000,40.728 140.000 C 40.908 140.000,41.304 140.911,41.607 142.025 C 41.910 143.139,42.282 144.127,42.434 144.221 C 43.279 144.743,40.161 149.600,38.980 149.600 C 38.835 149.600,37.964 150.108,37.044 150.728 C 36.125 151.349,34.793 152.113,34.086 152.426 C 33.379 152.739,32.800 153.131,32.800 153.298 C 32.800 153.464,32.530 153.600,32.200 153.600 C 31.870 153.600,31.600 153.780,31.600 154.000 C 31.600 154.220,31.330 154.400,31.000 154.400 C 30.670 154.400,30.400 154.580,30.400 154.800 C 30.400 155.020,30.130 155.200,29.800 155.200 C 29.470 155.200,29.200 155.380,29.200 155.600 C 29.200 155.820,28.930 156.000,28.600 156.000 C 28.270 156.000,28.000 156.180,28.000 156.400 C 28.000 156.620,27.764 156.800,27.475 156.800 C 27.187 156.800,26.564 157.160,26.092 157.600 C 25.620 158.040,24.971 158.400,24.650 158.400 C 24.329 158.400,24.007 158.535,23.933 158.700 C 23.860 158.865,22.990 159.437,22.000 159.970 C 21.010 160.504,20.110 161.054,20.000 161.194 C 19.890 161.333,18.990 161.902,18.000 162.457 C 14.169 164.605,12.963 165.320,11.938 166.047 C 11.354 166.461,10.679 166.800,10.438 166.800 C 10.197 166.800,10.000 166.950,10.000 167.132 C 10.000 167.315,9.505 167.720,8.900 168.032 C 8.295 168.344,7.710 168.689,7.600 168.799 C 7.206 169.195,4.987 170.454,4.300 170.671 C 3.915 170.793,3.600 171.052,3.600 171.247 C 3.600 171.441,3.357 171.600,3.059 171.600 C 1.273 171.600,0.000 173.919,0.000 177.173 C -0.000 181.065,0.066 181.163,6.830 187.200 C 8.186 188.410,11.749 191.802,14.748 194.737 C 17.746 197.672,21.004 200.732,21.988 201.537 C 32.574 210.202,36.654 216.419,33.579 219.200 C 33.457 219.310,32.557 220.570,31.579 222.000 C 30.601 223.430,29.665 224.660,29.500 224.733 C 29.335 224.807,29.200 225.044,29.200 225.262 C 29.200 225.479,28.390 226.792,27.400 228.179 C 26.410 229.566,25.600 230.822,25.600 230.969 C 25.600 231.116,25.150 231.686,24.600 232.236 C 24.050 232.786,23.600 233.380,23.600 233.556 C 23.600 233.732,23.150 234.399,22.600 235.038 C 22.051 235.677,21.601 236.343,21.600 236.517 C 21.600 236.691,21.240 237.220,20.800 237.692 C 20.360 238.164,20.000 238.787,20.000 239.075 C 20.000 239.364,19.832 239.600,19.627 239.600 C 19.422 239.600,19.138 239.966,18.996 240.413 C 18.854 240.860,18.302 241.662,17.769 242.195 C 17.236 242.728,16.800 243.318,16.800 243.506 C 16.800 243.695,16.460 244.214,16.044 244.660 C 15.628 245.107,14.247 247.076,12.975 249.036 C 11.703 250.996,10.513 252.660,10.331 252.733 C 10.149 252.807,10.000 253.172,10.000 253.545 C 10.000 253.918,9.640 254.483,9.200 254.800 C 8.737 255.133,8.400 255.835,8.400 256.465 C 8.400 257.063,8.231 257.657,8.025 257.784 C 7.581 258.059,7.631 259.600,8.085 259.600 C 8.258 259.600,8.400 260.068,8.400 260.640 C 8.400 261.912,10.459 263.952,12.067 264.273 C 12.690 264.398,13.200 264.657,13.200 264.850 C 13.200 265.042,13.562 265.200,14.005 265.200 C 14.448 265.200,15.168 265.380,15.605 265.600 C 16.042 265.820,16.758 266.180,17.195 266.400 C 17.632 266.620,18.341 266.800,18.771 266.800 C 19.201 266.800,19.642 266.944,19.751 267.121 C 19.860 267.297,20.861 267.690,21.975 267.993 C 23.089 268.296,24.000 268.654,24.000 268.787 C 24.000 268.921,24.402 269.060,24.893 269.097 C 25.713 269.159,26.663 269.515,28.495 270.447 C 28.877 270.641,29.522 270.800,29.928 270.800 C 30.334 270.800,30.792 270.925,30.945 271.078 C 31.098 271.231,31.525 271.401,31.894 271.455 C 32.264 271.509,32.933 271.727,33.383 271.940 C 34.625 272.526,37.715 273.663,38.474 273.812 C 38.845 273.884,39.565 274.167,40.074 274.440 C 40.583 274.712,41.044 274.909,41.098 274.877 C 41.380 274.711,43.647 275.353,43.832 275.652 C 43.950 275.843,44.487 276.000,45.024 276.000 C 45.561 276.000,46.000 276.180,46.000 276.400 C 46.000 276.620,46.439 276.800,46.976 276.800 C 47.513 276.800,48.064 276.980,48.200 277.200 C 48.336 277.420,48.876 277.600,49.400 277.600 C 49.924 277.600,50.464 277.780,50.600 278.000 C 50.736 278.220,51.287 278.400,51.824 278.400 C 52.361 278.400,52.800 278.580,52.800 278.800 C 52.800 279.020,53.088 279.200,53.440 279.200 C 55.112 279.200,56.800 281.793,56.800 284.360 C 56.800 285.720,56.623 286.800,56.400 286.800 C 56.180 286.800,56.000 287.779,56.000 288.976 C 56.000 290.173,55.820 291.264,55.600 291.400 C 55.380 291.536,55.200 292.447,55.200 293.424 C 55.200 294.401,55.020 295.200,54.800 295.200 C 54.580 295.200,54.400 296.089,54.400 297.176 C 54.400 298.263,54.220 299.264,54.000 299.400 C 53.780 299.536,53.600 300.526,53.600 301.600 C 53.600 302.674,53.420 303.664,53.200 303.800 C 52.980 303.936,52.800 304.836,52.800 305.800 C 52.800 306.764,52.620 307.664,52.400 307.800 C 52.180 307.936,52.000 308.926,52.000 310.000 C 52.000 311.074,51.820 312.064,51.600 312.200 C 51.380 312.336,51.200 313.236,51.200 314.200 C 51.200 315.164,51.020 316.064,50.800 316.200 C 50.580 316.336,50.400 317.301,50.400 318.344 C 50.400 319.387,50.237 320.411,50.037 320.620 C 49.632 321.044,49.265 323.767,48.952 328.679 C 48.736 332.061,50.039 334.800,51.864 334.800 C 52.159 334.800,52.400 334.955,52.400 335.144 C 52.400 335.631,58.766 335.726,59.343 335.247 C 59.605 335.030,61.885 334.755,64.410 334.637 C 66.934 334.519,71.205 334.238,73.900 334.012 C 76.595 333.785,81.005 333.415,83.700 333.189 C 86.395 332.963,90.580 332.689,93.000 332.580 C 95.420 332.471,97.816 332.170,98.325 331.910 C 99.038 331.546,99.426 331.548,100.019 331.919 C 100.443 332.184,101.033 332.400,101.330 332.400 C 102.421 332.400,104.400 335.100,104.400 336.589 C 104.400 337.365,104.580 338.000,104.800 338.000 C 105.020 338.000,105.200 338.619,105.200 339.376 C 105.200 340.133,105.380 340.864,105.600 341.000 C 105.820 341.136,106.000 341.946,106.000 342.800 C 106.000 343.654,106.180 344.464,106.400 344.600 C 106.620 344.736,106.800 345.456,106.800 346.200 C 106.800 346.944,106.980 347.664,107.200 347.800 C 107.420 347.936,107.600 348.656,107.600 349.400 C 107.600 350.144,107.780 350.864,108.000 351.000 C 108.220 351.136,108.400 351.957,108.400 352.824 C 108.400 353.691,108.580 354.400,108.800 354.400 C 109.020 354.400,109.200 354.992,109.200 355.716 C 109.200 356.440,109.454 358.015,109.764 359.216 C 110.075 360.417,110.425 361.940,110.543 362.600 C 110.661 363.260,111.035 364.790,111.374 366.000 C 111.713 367.210,111.993 368.684,111.995 369.276 C 111.998 369.868,112.180 370.464,112.400 370.600 C 112.620 370.736,112.800 371.278,112.800 371.805 C 112.800 372.331,112.963 373.176,113.162 373.681 C 113.361 374.187,113.757 375.680,114.043 377.000 C 114.648 379.798,115.649 381.678,117.006 382.567 C 118.102 383.285,123.600 383.479,123.600 382.800 C 123.600 382.580,123.836 382.400,124.125 382.400 C 124.413 382.400,125.036 382.040,125.508 381.600 C 125.980 381.160,126.644 380.800,126.983 380.800 C 127.322 380.800,127.600 380.620,127.600 380.400 C 127.600 380.180,127.945 380.000,128.367 380.000 C 128.788 380.000,129.193 379.858,129.267 379.685 C 129.340 379.512,130.390 378.881,131.600 378.284 C 134.005 377.095,136.086 375.924,136.400 375.582 C 136.510 375.462,138.040 374.665,139.800 373.810 C 141.560 372.955,143.090 372.152,143.200 372.025 C 143.310 371.899,144.492 371.241,145.827 370.564 C 148.922 368.995,151.743 367.457,152.000 367.200 C 152.110 367.090,152.920 366.621,153.800 366.158 C 157.785 364.059,160.211 362.639,160.333 362.333 C 160.407 362.150,160.812 362.000,161.233 362.000 C 161.655 362.000,162.000 361.820,162.000 361.600 C 162.000 361.380,162.995 361.200,164.211 361.200 C 166.413 361.200,170.000 363.696,170.000 365.229 C 170.000 365.477,170.540 366.183,171.200 366.800 C 171.860 367.417,172.400 368.027,172.400 368.156 C 172.400 368.389,173.335 369.600,174.300 370.616 C 174.575 370.906,174.800 371.243,174.800 371.365 C 174.800 371.486,175.247 372.084,175.794 372.693 C 176.340 373.302,178.143 375.690,179.800 378.000 C 181.457 380.310,183.260 382.698,183.806 383.307 C 184.353 383.916,184.800 384.499,184.800 384.602 C 184.800 384.773,185.551 385.750,186.600 386.945 C 186.820 387.195,187.808 388.480,188.797 389.800 C 189.785 391.120,190.899 392.481,191.272 392.825 C 191.645 393.169,192.006 393.704,192.075 394.014 C 192.144 394.323,192.698 395.122,193.307 395.788 C 193.916 396.455,194.813 397.575,195.299 398.277 C 196.216 399.601,197.022 399.985,198.900 399.995 L 200.000 400.000 200.000 361.433 C 200.000 340.221,200.098 322.610,200.218 322.298 C 200.395 321.837,200.011 321.766,198.166 321.919 C 195.243 322.162,183.706 321.054,178.400 320.022 C 173.140 318.999,171.742 318.677,166.200 317.214 C 134.458 308.834,103.869 282.872,89.598 252.200 C 83.354 238.779,80.535 228.969,78.333 213.000 C 77.217 204.900,77.793 188.542,79.569 177.926 C 80.566 171.967,83.865 160.107,85.668 156.000 C 86.137 154.931,86.718 153.498,87.210 152.200 C 98.638 121.985,128.941 94.096,161.998 83.367 C 168.109 81.383,167.992 81.416,174.100 80.008 C 180.306 78.578,194.481 76.975,198.195 77.283 C 200.014 77.434,200.394 77.362,200.218 76.902 C 200.098 76.590,200.000 66.089,200.000 53.567 C 200.000 30.846,199.998 30.800,199.176 30.800 C 198.061 30.800,193.210 27.039,188.470 22.500 C 187.494 21.565,186.628 20.800,186.547 20.800 C 186.466 20.800,186.077 20.485,185.682 20.100 C 185.287 19.715,184.178 18.770,183.217 18.000 C 182.257 17.230,180.974 16.105,180.366 15.500 C 179.759 14.895,179.153 14.400,179.020 14.400 C 178.756 14.400,176.630 12.546,174.549 10.500 C 173.822 9.785,173.113 9.200,172.974 9.200 C 172.835 9.200,172.217 8.660,171.600 8.000 C 170.983 7.340,170.374 6.800,170.246 6.800 C 170.002 6.800,168.906 5.849,165.481 2.665 C 162.557 -0.054,158.823 -0.902,156.000 0.513 M202.433 77.344 C 202.525 77.424,205.120 77.592,208.200 77.717 C 211.465 77.850,213.466 77.802,213.000 77.601 C 212.251 77.278,202.072 77.031,202.433 77.344 M214.033 78.151 C 214.125 78.234,215.460 78.422,217.000 78.569 C 218.972 78.758,219.623 78.715,219.200 78.425 C 218.661 78.054,213.632 77.788,214.033 78.151 M220.033 78.949 C 220.125 79.031,221.100 79.218,222.200 79.365 C 223.620 79.555,224.026 79.514,223.600 79.223 C 223.061 78.854,219.632 78.590,220.033 78.949 M225.600 80.000 C 227.036 80.460,227.684 80.460,227.400 80.000 C 227.264 79.780,226.578 79.618,225.876 79.640 C 224.657 79.678,224.645 79.694,225.600 80.000 M228.800 80.800 C 230.236 81.260,230.884 81.260,230.600 80.800 C 230.464 80.580,229.778 80.418,229.076 80.440 C 227.857 80.478,227.845 80.494,228.800 80.800 M232.200 81.600 C 233.301 82.073,233.692 82.073,233.400 81.600 C 233.264 81.380,232.758 81.213,232.276 81.228 C 231.431 81.255,231.429 81.269,232.200 81.600 M235.000 82.400 C 236.101 82.873,236.492 82.873,236.200 82.400 C 236.064 82.180,235.558 82.013,235.076 82.028 C 234.231 82.055,234.229 82.069,235.000 82.400 M237.400 83.200 C 238.596 83.714,239.595 83.714,238.800 83.200 C 238.470 82.987,237.840 82.822,237.400 82.834 L 236.600 82.856 237.400 83.200 M248.000 86.995 C 248.000 87.288,250.895 88.438,251.105 88.229 C 251.205 88.129,250.615 87.766,249.794 87.423 C 248.168 86.744,248.000 86.704,248.000 86.995 M253.200 89.371 C 253.200 89.464,254.235 90.041,255.500 90.652 C 270.032 97.670,284.842 109.971,296.799 124.954 C 298.618 127.233,299.205 127.711,298.077 125.993 C 297.424 125.000,296.099 123.290,295.132 122.193 C 294.165 121.097,292.867 119.570,292.247 118.800 C 288.601 114.273,280.204 106.494,273.843 101.752 C 271.619 100.094,269.527 98.527,269.194 98.269 C 268.861 98.011,268.096 97.545,267.494 97.232 C 266.892 96.920,266.400 96.515,266.400 96.332 C 266.400 96.150,266.207 96.000,265.972 96.000 C 265.737 96.000,264.759 95.460,263.800 94.800 C 262.841 94.140,261.990 93.600,261.910 93.600 C 261.829 93.600,259.972 92.610,257.782 91.400 C 254.037 89.331,253.200 88.960,253.200 89.371 M301.460 131.404 C 302.706 133.276,303.800 134.734,303.891 134.643 C 304.115 134.418,299.878 128.020,299.497 128.009 C 299.331 128.004,300.214 129.532,301.460 131.404 M304.831 136.700 C 305.918 138.518,306.403 139.103,306.391 138.580 C 306.386 138.371,306.030 137.750,305.600 137.200 C 305.170 136.650,304.814 135.975,304.809 135.700 C 304.804 135.425,304.605 135.200,304.367 135.200 C 304.129 135.200,304.338 135.875,304.831 136.700 M309.303 144.856 C 310.896 148.077,312.271 150.646,312.358 150.565 C 312.560 150.376,307.846 140.857,307.026 139.800 C 306.685 139.360,307.709 141.635,309.303 144.856 M197.830 150.438 C 196.792 151.999,196.024 153.358,196.124 153.457 C 196.223 153.556,197.014 152.504,197.881 151.119 C 199.979 147.766,200.074 147.600,199.882 147.600 C 199.792 147.600,198.868 148.877,197.830 150.438 M312.430 151.500 C 312.490 152.111,313.942 154.984,313.970 154.549 C 314.007 153.990,312.861 151.200,312.595 151.200 C 312.488 151.200,312.413 151.335,312.430 151.500 M192.253 159.191 C 191.674 160.067,191.200 160.917,191.200 161.080 C 191.200 161.244,191.442 161.023,191.739 160.589 C 193.041 158.681,193.678 157.600,193.499 157.600 C 193.393 157.600,192.832 158.316,192.253 159.191 M316.434 162.000 C 316.446 162.330,316.611 162.960,316.800 163.400 L 317.144 164.200 317.166 163.400 C 317.178 162.960,317.013 162.330,316.800 162.000 C 316.455 161.467,316.415 161.467,316.434 162.000 M317.234 164.800 C 317.246 165.130,317.411 165.760,317.600 166.200 L 317.944 167.000 317.966 166.200 C 317.978 165.760,317.813 165.130,317.600 164.800 C 317.255 164.267,317.215 164.267,317.234 164.800 M187.046 167.400 C 186.691 167.950,186.109 168.895,185.753 169.500 L 185.105 170.600 185.910 169.626 C 186.860 168.476,188.121 166.400,187.869 166.400 C 187.771 166.400,187.401 166.850,187.046 167.400 M318.034 167.600 C 318.046 167.930,318.211 168.560,318.400 169.000 L 318.744 169.800 318.766 169.000 C 318.778 168.560,318.613 167.930,318.400 167.600 C 318.055 167.067,318.015 167.067,318.034 167.600 M318.834 171.000 C 318.872 172.366,319.538 173.642,319.566 172.400 C 319.578 171.850,319.413 171.130,319.200 170.800 C 318.880 170.305,318.816 170.340,318.834 171.000 M319.646 174.200 C 319.715 175.831,320.315 177.187,320.354 175.800 C 320.373 175.140,320.213 174.330,320.000 174.000 C 319.681 173.506,319.618 173.541,319.646 174.200 M179.684 178.668 C 179.181 179.457,178.840 180.173,178.926 180.259 C 179.012 180.346,179.562 179.693,180.147 178.808 C 180.732 177.924,181.074 177.208,180.906 177.217 C 180.738 177.226,180.188 177.879,179.684 178.668 M320.635 179.800 C 320.782 180.900,320.969 181.875,321.051 181.967 C 321.410 182.368,321.146 178.939,320.777 178.400 C 320.486 177.974,320.445 178.380,320.635 179.800 M321.454 185.800 C 321.588 187.560,321.765 189.075,321.849 189.167 C 322.175 189.526,321.922 184.152,321.577 183.400 C 321.341 182.884,321.297 183.734,321.454 185.800 M174.304 187.127 C 172.027 190.551,170.790 192.960,170.834 193.884 C 170.858 194.366,170.968 194.272,171.174 193.597 C 171.614 192.150,172.704 190.116,174.388 187.600 C 176.203 184.889,176.492 184.400,176.282 184.400 C 176.192 184.400,175.301 185.627,174.304 187.127 M322.143 199.600 C 322.143 204.770,322.273 208.550,322.431 208.000 C 322.590 207.450,322.720 203.670,322.720 199.600 C 322.720 195.530,322.590 191.750,322.431 191.200 C 322.273 190.650,322.143 194.430,322.143 199.600 M170.524 197.000 C 170.526 198.320,170.601 198.812,170.690 198.093 C 170.779 197.374,170.777 196.294,170.686 195.693 C 170.595 195.092,170.522 195.680,170.524 197.000 M171.600 202.272 C 171.600 202.520,172.365 203.516,173.300 204.485 C 174.235 205.454,174.532 205.696,173.960 205.023 C 173.389 204.351,172.624 203.355,172.260 202.811 C 171.897 202.267,171.600 202.025,171.600 202.272 M178.800 208.382 C 179.130 208.605,179.745 208.791,180.167 208.794 C 181.190 208.802,180.871 208.573,179.400 208.244 C 178.524 208.048,178.362 208.085,178.800 208.382 M194.986 210.100 L 194.352 211.400 195.167 210.400 C 195.952 209.437,196.208 208.800,195.810 208.800 C 195.706 208.800,195.335 209.385,194.986 210.100 M321.674 211.000 C 321.629 211.660,321.500 213.190,321.386 214.400 C 321.218 216.187,321.260 216.416,321.607 215.619 C 321.842 215.080,321.971 213.550,321.894 212.219 C 321.817 210.889,321.718 210.340,321.674 211.000 M190.653 216.791 C 190.074 217.667,189.600 218.517,189.600 218.680 C 189.600 218.844,189.842 218.623,190.139 218.189 C 191.441 216.281,192.078 215.200,191.899 215.200 C 191.793 215.200,191.232 215.916,190.653 216.791 M320.867 217.850 C 320.830 218.318,320.698 219.308,320.573 220.050 C 320.388 221.153,320.429 221.271,320.797 220.693 C 321.045 220.304,321.177 219.314,321.091 218.493 C 321.005 217.672,320.904 217.382,320.867 217.850 M187.521 221.900 C 185.379 225.160,185.115 225.600,185.301 225.600 C 185.476 225.600,186.041 224.795,188.178 221.500 C 188.571 220.895,188.805 220.400,188.699 220.400 C 188.593 220.400,188.063 221.075,187.521 221.900 M320.059 222.600 C 320.020 223.040,319.877 223.850,319.740 224.400 C 319.548 225.170,319.602 225.297,319.975 224.951 C 320.244 224.701,320.385 223.903,320.293 223.151 C 320.202 222.408,320.097 222.160,320.059 222.600 M319.022 227.129 C 318.858 227.859,318.822 228.556,318.942 228.676 C 319.243 228.977,319.720 226.956,319.499 226.317 C 319.401 226.033,319.186 226.398,319.022 227.129 M182.653 229.453 C 181.844 230.698,181.250 231.783,181.331 231.864 C 181.412 231.945,182.139 230.993,182.947 229.747 C 183.756 228.502,184.350 227.417,184.269 227.336 C 184.188 227.255,183.461 228.207,182.653 229.453 M318.229 230.629 C 318.081 231.215,318.051 231.784,318.161 231.894 C 318.271 232.004,318.481 231.615,318.629 231.029 C 318.776 230.442,318.806 229.873,318.696 229.763 C 318.586 229.653,318.376 230.042,318.229 230.629 M317.400 233.600 C 317.250 234.073,317.217 234.550,317.327 234.660 C 317.437 234.770,317.650 234.473,317.800 234.000 C 317.950 233.527,317.983 233.050,317.873 232.940 C 317.763 232.830,317.550 233.127,317.400 233.600 M178.253 236.391 C 177.121 238.102,176.825 239.118,177.843 237.800 C 178.582 236.844,179.685 234.800,179.463 234.800 C 179.377 234.800,178.832 235.516,178.253 236.391 M316.600 236.400 C 316.450 236.873,316.417 237.350,316.527 237.460 C 316.637 237.570,316.850 237.273,317.000 236.800 C 317.150 236.327,317.183 235.850,317.073 235.740 C 316.963 235.630,316.750 235.927,316.600 236.400 M315.092 240.642 C 314.931 240.802,314.800 241.209,314.800 241.547 C 314.800 241.997,314.918 242.042,315.245 241.715 C 315.490 241.470,315.621 241.063,315.537 240.810 C 315.452 240.557,315.252 240.481,315.092 240.642 M175.754 241.377 C 175.632 241.694,175.603 242.279,175.689 242.677 C 175.787 243.128,175.924 242.912,176.054 242.100 C 176.271 240.738,176.130 240.396,175.754 241.377 M313.086 246.017 C 312.714 246.966,312.486 247.819,312.581 247.914 C 312.824 248.158,314.046 245.138,313.891 244.674 C 313.821 244.464,313.459 245.068,313.086 246.017 M175.600 246.910 C 175.600 247.483,175.787 248.068,176.016 248.210 C 176.289 248.379,176.338 248.077,176.160 247.334 C 175.792 245.801,175.600 245.656,175.600 246.910 M200.130 246.900 C 199.684 247.395,198.727 248.700,198.001 249.800 C 197.276 250.900,196.214 252.337,195.641 252.994 C 194.829 253.924,194.797 254.022,195.493 253.438 C 196.270 252.786,201.338 246.000,201.048 246.000 C 200.988 246.000,200.575 246.405,200.130 246.900 M311.589 249.445 C 310.632 252.000,307.005 259.014,304.735 262.700 C 304.295 263.415,304.129 264.000,304.367 264.000 C 304.605 264.000,304.800 263.807,304.800 263.572 C 304.800 263.337,305.308 262.392,305.929 261.472 C 307.438 259.236,312.528 248.794,312.245 248.512 C 312.123 248.389,311.828 248.809,311.589 249.445 M177.213 250.656 C 177.231 251.144,178.357 252.576,178.561 252.371 C 178.655 252.277,178.387 251.775,177.966 251.256 C 177.545 250.736,177.206 250.466,177.213 250.656 M183.800 256.000 C 183.936 256.220,184.442 256.387,184.924 256.372 C 185.769 256.345,185.771 256.331,185.000 256.000 C 183.899 255.527,183.508 255.527,183.800 256.000 M301.460 267.796 C 300.214 269.668,299.331 271.190,299.497 271.179 C 299.890 271.151,304.121 264.788,303.896 264.563 C 303.802 264.469,302.706 265.924,301.460 267.796 M297.720 273.100 C 297.104 273.925,296.372 274.841,296.094 275.135 C 295.816 275.429,295.097 276.329,294.498 277.135 C 290.014 283.160,278.761 293.657,270.673 299.357 C 269.173 300.414,268.031 301.364,268.135 301.468 C 268.239 301.572,268.656 301.388,269.062 301.060 C 269.468 300.731,271.619 299.106,273.843 297.448 C 282.731 290.821,293.041 280.492,298.346 272.900 C 299.605 271.098,299.093 271.262,297.720 273.100 M264.874 303.184 C 263.526 304.054,261.862 305.058,261.175 305.413 C 260.488 305.768,260.011 306.145,260.116 306.249 C 260.408 306.541,267.600 302.211,267.600 301.743 C 267.600 301.459,267.286 301.625,264.874 303.184 M254.893 308.789 C 252.414 310.075,249.820 311.324,249.128 311.565 C 248.436 311.806,247.975 312.108,248.103 312.236 C 248.368 312.502,257.782 308.032,259.000 307.062 C 260.258 306.061,259.705 306.293,254.893 308.789 M242.000 314.400 C 241.467 314.745,241.467 314.788,242.000 314.788 C 242.330 314.788,242.870 314.613,243.200 314.400 C 243.733 314.055,243.733 314.012,243.200 314.012 C 242.870 314.012,242.330 314.187,242.000 314.400 M235.000 316.800 C 234.229 317.131,234.231 317.145,235.076 317.172 C 235.558 317.187,236.064 317.020,236.200 316.800 C 236.492 316.327,236.101 316.327,235.000 316.800 M232.200 317.600 C 231.429 317.931,231.431 317.945,232.276 317.972 C 232.758 317.987,233.264 317.820,233.400 317.600 C 233.692 317.127,233.301 317.127,232.200 317.600 M229.000 318.400 C 228.286 318.707,228.315 318.747,229.276 318.772 C 229.868 318.787,230.464 318.620,230.600 318.400 C 230.895 317.922,230.111 317.922,229.000 318.400 M225.400 319.200 C 224.686 319.507,224.715 319.547,225.676 319.572 C 226.268 319.587,226.864 319.420,227.000 319.200 C 227.295 318.722,226.511 318.722,225.400 319.200 M221.400 320.000 L 220.200 320.305 221.600 320.347 C 222.370 320.369,223.270 320.213,223.600 320.000 C 224.339 319.523,223.276 319.523,221.400 320.000 M215.800 320.800 L 214.200 321.086 216.200 321.115 C 217.300 321.131,218.560 320.989,219.000 320.800 C 220.015 320.364,218.237 320.364,215.800 320.800 M206.000 321.600 L 201.800 321.843 206.800 321.894 C 209.550 321.921,212.160 321.789,212.600 321.600 C 213.512 321.208,212.765 321.208,206.000 321.600 " stroke="none" fill="#fcdb2b" fill-rule="evenodd"></path><path id="path1" d="M238.000 0.261 C 236.502 0.754,235.600 1.383,235.600 1.934 C 235.600 2.264,235.486 2.420,235.347 2.281 C 235.208 2.142,234.596 2.562,233.987 3.214 C 233.378 3.866,232.671 4.400,232.416 4.400 C 232.161 4.400,232.064 4.580,232.200 4.800 C 232.337 5.022,232.036 5.203,231.524 5.206 C 230.781 5.211,230.717 5.288,231.200 5.600 C 231.724 5.939,231.719 5.989,231.159 5.994 C 230.807 5.997,229.993 6.495,229.350 7.100 C 228.708 7.705,227.466 8.734,226.591 9.388 C 225.716 10.041,224.151 11.442,223.113 12.501 C 222.076 13.560,221.131 14.420,221.013 14.413 C 220.271 14.368,220.081 14.500,219.600 15.399 C 219.306 15.949,218.988 16.321,218.893 16.226 C 218.798 16.131,218.102 16.671,217.347 17.427 C 216.591 18.182,215.813 18.800,215.618 18.800 C 215.093 18.800,210.000 23.835,210.000 24.355 C 210.000 24.600,209.652 24.800,209.227 24.800 C 208.802 24.800,208.339 25.163,208.198 25.606 C 208.057 26.049,207.795 26.321,207.616 26.210 C 207.436 26.098,206.549 26.726,205.644 27.603 C 204.740 28.481,204.000 29.064,204.000 28.900 C 203.999 28.735,203.573 29.095,203.053 29.700 C 202.465 30.384,201.707 30.800,201.050 30.800 L 199.994 30.800 200.097 53.900 L 200.200 77.000 206.600 77.280 C 212.920 77.557,216.715 77.945,221.400 78.796 C 222.720 79.035,224.520 79.333,225.400 79.457 C 226.280 79.581,227.171 79.844,227.380 80.041 C 227.589 80.238,228.343 80.400,229.056 80.400 C 229.769 80.400,230.464 80.580,230.600 80.800 C 230.736 81.020,231.366 81.200,232.000 81.200 C 232.634 81.200,233.264 81.380,233.400 81.600 C 233.536 81.820,234.089 82.000,234.629 82.000 C 235.169 82.000,235.923 82.158,236.305 82.351 C 236.687 82.544,237.720 82.916,238.600 83.177 C 239.480 83.439,240.650 83.845,241.200 84.080 C 242.343 84.568,242.881 84.777,246.200 86.023 C 250.799 87.748,261.557 93.175,264.420 95.214 C 265.027 95.646,265.721 96.000,265.962 96.000 C 266.203 96.000,266.400 96.150,266.400 96.332 C 266.400 96.515,266.892 96.920,267.494 97.232 C 268.096 97.545,268.861 98.011,269.194 98.269 C 269.527 98.527,271.619 100.094,273.843 101.752 C 282.467 108.182,290.564 116.179,297.124 124.748 C 298.072 125.987,299.088 127.294,299.381 127.654 C 300.606 129.158,304.000 134.396,304.000 134.782 C 304.000 135.012,304.159 135.200,304.353 135.200 C 304.548 135.200,304.810 135.515,304.936 135.900 C 305.062 136.285,305.711 137.500,306.378 138.600 C 308.595 142.256,314.000 153.541,314.000 154.516 C 314.000 154.804,314.149 155.211,314.330 155.420 C 314.512 155.629,314.905 156.610,315.202 157.600 C 315.500 158.590,315.866 159.580,316.014 159.800 C 316.163 160.020,316.413 160.650,316.569 161.200 C 316.726 161.750,317.022 162.785,317.227 163.500 C 318.191 166.861,318.480 167.907,318.827 169.300 C 319.032 170.125,319.393 171.565,319.628 172.500 C 320.057 174.204,320.490 176.521,321.217 181.000 C 323.016 192.095,323.005 207.092,321.188 218.400 C 320.958 219.830,320.670 221.810,320.546 222.800 C 320.423 223.790,320.160 224.771,319.961 224.980 C 319.763 225.189,319.600 225.806,319.600 226.352 C 319.600 226.897,319.432 227.896,319.227 228.572 C 319.022 229.247,318.641 230.610,318.381 231.600 C 318.120 232.590,317.769 233.850,317.600 234.400 C 317.431 234.950,317.061 236.210,316.777 237.200 C 316.493 238.190,316.112 239.171,315.930 239.380 C 315.749 239.589,315.600 240.086,315.600 240.485 C 315.600 240.884,315.420 241.568,315.200 242.005 C 314.980 242.442,314.620 243.158,314.400 243.595 C 314.180 244.032,314.000 244.566,314.000 244.783 C 314.000 245.729,307.549 259.066,305.927 261.472 C 305.307 262.392,304.800 263.337,304.800 263.572 C 304.800 263.807,304.620 264.000,304.400 264.000 C 304.180 264.000,304.000 264.196,304.000 264.435 C 304.000 264.814,300.180 270.668,299.585 271.200 C 299.462 271.310,298.929 272.030,298.400 272.800 C 293.286 280.244,282.794 290.774,273.843 297.448 C 271.619 299.106,269.483 300.718,269.095 301.031 C 268.708 301.344,268.293 301.600,268.173 301.600 C 268.054 301.600,266.877 302.333,265.558 303.229 C 260.844 306.430,253.101 310.412,246.600 312.978 C 243.960 314.020,241.487 315.036,241.105 315.236 C 240.723 315.436,240.059 315.600,239.629 315.600 C 239.199 315.600,238.736 315.780,238.600 316.000 C 238.464 316.220,237.924 316.400,237.400 316.400 C 236.876 316.400,236.336 316.580,236.200 316.800 C 236.064 317.020,235.434 317.200,234.800 317.200 C 234.166 317.200,233.536 317.380,233.400 317.600 C 233.264 317.820,232.634 318.000,232.000 318.000 C 231.366 318.000,230.736 318.180,230.600 318.400 C 230.464 318.620,229.654 318.800,228.800 318.800 C 227.946 318.800,227.148 318.961,227.026 319.158 C 226.905 319.355,226.129 319.617,225.303 319.742 C 224.476 319.867,222.720 320.157,221.400 320.387 C 216.486 321.244,212.035 321.700,206.200 321.947 L 200.200 322.200 200.098 361.156 L 199.996 400.112 202.021 399.872 C 204.247 399.608,205.136 398.867,206.306 396.300 C 206.681 395.475,207.216 394.800,207.494 394.800 C 207.941 394.800,208.021 394.639,207.993 393.793 C 207.990 393.680,208.575 392.973,209.293 392.224 C 211.051 390.390,212.224 388.687,212.064 388.200 C 211.992 387.980,212.060 387.926,212.214 388.081 C 212.485 388.351,213.600 387.501,213.600 387.025 C 213.600 386.897,214.140 386.228,214.800 385.537 C 215.460 384.846,216.000 384.126,216.000 383.937 C 216.000 383.748,216.540 383.028,217.200 382.337 C 217.860 381.646,218.400 380.910,218.400 380.701 C 218.400 380.492,218.940 379.817,219.600 379.200 C 220.260 378.583,220.800 377.857,220.800 377.586 C 220.800 377.316,221.117 376.803,221.504 376.447 C 222.771 375.284,224.372 372.905,224.083 372.616 C 223.927 372.461,224.070 372.393,224.400 372.467 C 224.730 372.540,224.953 372.370,224.896 372.089 C 224.839 371.808,225.064 371.473,225.396 371.346 C 225.728 371.219,226.000 370.903,226.000 370.646 C 226.000 370.388,226.360 369.917,226.800 369.600 C 227.240 369.283,227.600 368.693,227.600 368.288 C 227.600 367.884,227.780 367.664,228.000 367.800 C 228.220 367.936,228.400 367.768,228.400 367.427 C 228.400 367.086,228.760 366.582,229.200 366.307 C 229.640 366.032,230.000 365.480,230.000 365.080 C 230.000 364.680,230.180 364.464,230.400 364.600 C 230.620 364.736,230.800 364.651,230.800 364.410 C 230.800 362.127,236.528 360.071,238.208 361.751 C 238.536 362.079,239.164 362.462,239.602 362.601 C 240.041 362.740,240.400 363.022,240.400 363.227 C 240.400 363.432,240.985 363.603,241.700 363.606 C 242.488 363.610,242.805 363.736,242.504 363.927 C 242.172 364.138,242.471 364.409,243.404 364.747 C 244.172 365.025,244.800 365.431,244.800 365.649 C 244.800 365.868,244.965 365.945,245.168 365.820 C 245.370 365.695,245.778 365.819,246.075 366.096 C 246.886 366.853,249.200 368.086,249.200 367.761 C 249.200 367.605,249.536 367.865,249.947 368.339 C 250.762 369.279,251.399 369.498,250.993 368.700 C 250.853 368.425,251.097 368.605,251.534 369.100 C 251.971 369.595,252.614 370.000,252.964 370.000 C 253.314 370.000,253.600 370.180,253.600 370.400 C 253.600 370.620,253.949 370.800,254.376 370.800 C 254.803 370.800,255.260 370.974,255.391 371.186 C 255.701 371.688,261.301 374.631,261.697 374.500 C 261.864 374.445,262.000 374.580,262.000 374.800 C 262.000 375.020,262.278 375.200,262.617 375.200 C 262.956 375.200,263.620 375.560,264.092 376.000 C 264.564 376.440,265.187 376.800,265.475 376.800 C 265.764 376.800,266.000 376.957,266.000 377.150 C 266.000 377.343,266.518 377.604,267.152 377.730 C 267.785 377.857,268.582 378.240,268.923 378.580 C 269.264 378.921,269.826 379.200,270.171 379.200 C 270.517 379.200,270.800 379.380,270.800 379.600 C 270.800 379.820,271.070 380.000,271.400 380.000 C 271.730 380.000,272.000 380.180,272.000 380.400 C 272.000 380.620,272.270 380.800,272.600 380.800 C 272.930 380.800,273.203 381.025,273.206 381.300 C 273.211 381.692,273.279 381.694,273.524 381.309 C 273.754 380.948,273.987 381.027,274.406 381.609 C 274.720 382.044,275.297 382.400,275.688 382.400 C 276.080 382.400,276.400 382.580,276.400 382.800 C 276.400 383.412,282.464 383.278,283.294 382.648 C 283.675 382.358,283.870 382.004,283.727 381.860 C 283.584 381.717,283.767 381.600,284.133 381.600 C 284.533 381.600,284.800 381.280,284.800 380.800 C 284.800 380.360,284.980 380.000,285.200 380.000 C 285.420 380.000,285.600 379.471,285.600 378.824 C 285.600 378.177,285.780 377.536,286.000 377.400 C 286.220 377.264,286.400 376.533,286.400 375.776 C 286.400 375.019,286.580 374.400,286.800 374.400 C 287.020 374.400,287.200 373.601,287.200 372.624 C 287.200 371.647,287.380 370.736,287.600 370.600 C 287.820 370.464,288.000 369.859,288.000 369.256 C 288.000 368.653,288.162 367.989,288.359 367.780 C 288.556 367.571,288.812 366.680,288.926 365.800 C 289.041 364.920,289.338 363.390,289.586 362.400 C 289.834 361.410,290.193 359.970,290.384 359.200 C 290.575 358.430,290.845 357.350,290.984 356.800 C 291.123 356.250,291.344 354.850,291.475 353.688 C 291.607 352.527,291.869 351.481,292.057 351.365 C 292.246 351.248,292.400 350.443,292.400 349.576 C 292.400 348.709,292.551 348.000,292.735 348.000 C 292.920 348.000,293.096 347.326,293.127 346.503 C 293.158 345.679,293.367 344.944,293.591 344.870 C 293.816 344.795,294.000 344.028,294.000 343.167 C 294.000 342.305,294.180 341.600,294.400 341.600 C 294.620 341.600,294.800 340.891,294.800 340.024 C 294.800 339.157,294.980 338.336,295.200 338.200 C 295.420 338.064,295.600 337.511,295.600 336.971 C 295.600 335.159,297.762 332.400,299.182 332.400 C 299.632 332.400,300.000 332.220,300.000 332.000 C 300.000 331.780,300.270 331.600,300.600 331.600 C 300.930 331.600,301.200 331.780,301.200 332.000 C 301.200 332.244,303.067 332.400,306.000 332.400 C 308.933 332.400,310.800 332.556,310.800 332.800 C 310.800 333.045,312.733 333.200,315.800 333.200 C 318.550 333.200,320.800 333.362,320.800 333.559 C 320.800 333.757,322.908 333.943,325.485 333.973 C 328.062 334.003,330.270 334.190,330.393 334.388 C 330.602 334.728,335.652 335.071,343.800 335.299 C 347.839 335.412,350.400 334.580,350.400 333.154 C 350.400 332.739,350.589 332.400,350.820 332.400 C 351.335 332.400,351.269 324.490,350.751 324.169 C 350.558 324.050,350.400 323.243,350.400 322.376 C 350.400 321.509,350.255 320.800,350.078 320.800 C 349.901 320.800,349.712 320.040,349.657 319.110 C 349.602 318.181,349.366 317.303,349.133 317.159 C 348.858 316.989,348.901 316.827,349.255 316.698 C 349.692 316.539,349.701 316.395,349.300 315.970 C 349.025 315.679,348.800 314.576,348.800 313.520 C 348.800 312.464,348.620 311.600,348.400 311.600 C 348.180 311.600,348.000 310.790,348.000 309.800 C 348.000 308.810,347.820 308.000,347.600 308.000 C 347.378 308.000,347.200 306.941,347.200 305.624 C 347.200 304.317,347.020 303.136,346.800 303.000 C 346.580 302.864,346.400 302.122,346.400 301.350 C 346.400 300.579,346.213 299.599,345.985 299.173 C 345.757 298.747,345.555 297.592,345.535 296.607 C 345.515 295.621,345.342 294.912,345.149 295.031 C 344.957 295.150,344.800 294.157,344.800 292.824 C 344.800 291.475,344.623 290.400,344.400 290.400 C 344.180 290.400,344.000 289.680,344.000 288.800 C 344.000 287.920,343.820 287.200,343.600 287.200 C 343.374 287.200,343.200 286.053,343.200 284.560 C 343.200 281.668,344.839 279.200,346.760 279.200 C 347.222 279.200,347.600 279.049,347.600 278.864 C 347.600 278.504,350.427 277.467,351.408 277.467 C 351.734 277.467,352.000 277.317,352.000 277.133 C 352.000 276.950,352.439 276.800,352.976 276.800 C 353.513 276.800,354.064 276.620,354.200 276.400 C 354.336 276.180,354.807 276.000,355.247 276.000 C 355.687 276.000,355.936 275.820,355.800 275.600 C 355.654 275.364,356.096 275.199,356.876 275.198 C 358.589 275.195,361.200 274.468,361.200 273.994 C 361.200 273.791,361.452 273.722,361.760 273.840 C 362.067 273.958,362.438 273.862,362.583 273.627 C 362.728 273.392,363.276 273.200,363.800 273.200 C 364.324 273.200,364.864 273.020,365.000 272.800 C 365.136 272.580,365.676 272.400,366.200 272.400 C 366.724 272.400,367.264 272.220,367.400 272.000 C 367.536 271.780,367.999 271.600,368.429 271.600 C 368.859 271.600,369.523 271.446,369.905 271.257 C 370.287 271.069,371.140 270.642,371.800 270.310 C 372.460 269.978,373.209 269.782,373.463 269.874 C 373.718 269.967,374.044 269.853,374.187 269.621 C 374.330 269.390,374.797 269.200,375.224 269.200 C 375.651 269.200,376.000 269.020,376.000 268.800 C 376.000 268.580,376.540 268.400,377.200 268.400 C 377.860 268.400,378.400 268.220,378.400 268.000 C 378.400 267.780,378.850 267.600,379.400 267.600 C 379.950 267.600,380.400 267.420,380.400 267.200 C 380.400 266.980,380.852 266.800,381.405 266.800 C 381.958 266.800,382.723 266.632,383.105 266.426 C 383.487 266.221,384.385 265.817,385.100 265.529 C 385.815 265.240,386.400 264.869,386.400 264.702 C 386.400 264.536,387.009 264.400,387.753 264.400 C 389.489 264.400,391.600 262.383,391.600 260.724 C 391.600 260.106,391.780 259.600,392.000 259.600 C 392.220 259.600,392.400 259.150,392.400 258.600 C 392.400 258.050,392.220 257.600,392.000 257.600 C 391.780 257.600,391.599 257.105,391.597 256.500 C 391.595 255.508,390.016 252.448,389.997 253.400 C 389.993 253.620,389.519 252.855,388.944 251.700 C 388.369 250.545,387.741 249.600,387.549 249.600 C 387.357 249.600,387.200 249.364,387.200 249.075 C 387.200 248.787,386.840 248.164,386.400 247.692 C 385.960 247.220,385.600 246.666,385.600 246.462 C 385.600 246.257,385.062 245.665,384.404 245.145 C 383.746 244.625,383.206 243.885,383.204 243.500 C 383.202 243.115,383.020 242.800,382.800 242.800 C 382.580 242.800,382.400 242.575,382.399 242.300 C 382.399 242.025,381.859 241.170,381.200 240.400 C 380.541 239.630,380.001 238.815,380.001 238.588 C 380.000 238.362,379.640 237.917,379.200 237.600 C 378.760 237.283,378.399 236.838,378.398 236.612 C 378.397 236.385,377.848 235.615,377.178 234.900 C 376.508 234.185,376.173 233.600,376.434 233.600 C 376.695 233.600,376.299 233.042,375.554 232.360 C 374.809 231.678,374.443 231.250,374.740 231.408 C 375.175 231.641,375.192 231.533,374.826 230.848 C 374.576 230.382,374.198 230.000,373.986 230.000 C 373.774 230.000,373.600 229.730,373.600 229.400 C 373.600 229.070,373.409 228.800,373.176 228.800 C 372.943 228.800,372.860 228.626,372.992 228.413 C 373.123 228.200,372.864 227.797,372.416 227.517 C 371.967 227.237,371.600 226.731,371.600 226.392 C 371.600 226.054,371.240 225.517,370.800 225.200 C 370.360 224.883,370.000 224.343,370.000 224.000 C 370.000 223.657,369.640 223.117,369.200 222.800 C 368.760 222.483,368.400 221.969,368.400 221.659 C 368.400 221.348,368.084 220.803,367.697 220.447 C 367.311 220.091,366.740 219.305,366.430 218.700 C 366.119 218.095,365.715 217.600,365.532 217.600 C 365.018 217.600,365.140 214.895,365.700 213.902 C 366.304 212.831,369.667 209.466,373.397 206.200 C 377.097 202.960,380.000 200.011,380.000 199.493 C 380.000 199.258,380.109 199.175,380.241 199.308 C 380.374 199.441,382.141 197.896,384.167 195.875 C 386.193 193.854,388.776 191.404,389.906 190.431 C 391.037 189.458,391.870 188.513,391.757 188.331 C 391.645 188.149,391.817 188.000,392.139 188.000 C 392.462 188.000,394.362 186.377,396.363 184.394 L 400.000 180.788 400.000 177.436 C 400.000 174.017,398.835 171.600,397.186 171.600 C 396.916 171.600,396.358 171.212,395.947 170.739 C 395.505 170.230,395.200 170.091,395.200 170.400 C 395.200 170.739,394.954 170.655,394.500 170.161 C 394.115 169.743,393.541 169.344,393.225 169.275 C 392.909 169.206,392.348 168.801,391.978 168.375 C 391.609 167.949,391.089 167.600,390.825 167.600 C 390.560 167.600,390.071 167.328,389.739 166.996 C 389.407 166.664,388.942 166.512,388.706 166.658 C 388.467 166.806,388.391 166.738,388.536 166.504 C 388.766 166.132,387.949 165.529,387.085 165.435 C 386.912 165.416,386.642 165.220,386.485 164.999 C 386.328 164.779,385.705 164.344,385.100 164.032 C 384.495 163.720,384.000 163.315,384.000 163.132 C 384.000 162.950,383.640 162.800,383.200 162.800 C 382.760 162.800,382.053 162.485,381.629 162.100 C 380.302 160.896,379.864 160.612,377.500 159.425 C 376.235 158.789,375.200 158.152,375.200 158.009 C 375.200 157.866,374.570 157.502,373.800 157.200 C 373.030 156.898,372.400 156.504,372.400 156.325 C 372.400 156.146,372.130 156.000,371.800 156.000 C 371.470 156.000,371.200 155.820,371.200 155.600 C 371.200 155.380,370.930 155.200,370.600 155.200 C 370.270 155.200,369.999 155.065,369.997 154.900 C 369.993 154.520,368.042 153.602,367.220 153.594 C 366.674 153.588,366.671 153.542,367.200 153.200 C 367.685 152.886,367.628 152.811,366.900 152.806 C 366.405 152.803,366.000 152.642,366.000 152.449 C 366.000 152.255,365.460 151.873,364.800 151.600 C 364.140 151.327,363.600 150.945,363.600 150.751 C 363.600 150.558,363.255 150.400,362.833 150.400 C 362.412 150.400,362.007 150.233,361.933 150.030 C 361.860 149.826,361.543 149.601,361.228 149.530 C 360.415 149.345,358.178 147.180,358.314 146.709 C 358.377 146.493,358.229 146.076,357.986 145.783 C 357.698 145.437,357.674 144.998,357.917 144.526 C 358.123 144.127,358.256 143.403,358.213 142.919 C 358.171 142.434,358.286 142.129,358.468 142.242 C 358.651 142.355,358.800 141.987,358.800 141.424 C 358.800 140.861,358.980 140.400,359.200 140.400 C 359.420 140.400,359.600 140.040,359.600 139.600 C 359.600 139.160,359.780 138.800,360.000 138.800 C 360.220 138.800,360.400 138.386,360.400 137.880 C 360.400 136.826,361.253 134.808,361.700 134.803 C 361.865 134.801,362.000 134.451,362.000 134.024 C 362.000 133.597,362.180 133.136,362.400 133.000 C 362.620 132.864,362.800 132.439,362.800 132.056 C 362.800 131.181,363.699 129.207,364.100 129.203 C 364.265 129.201,364.400 128.570,364.400 127.800 C 364.400 127.030,364.580 126.400,364.800 126.400 C 365.020 126.400,365.200 126.130,365.200 125.800 C 365.200 125.470,365.391 125.200,365.624 125.200 C 365.857 125.200,365.952 125.047,365.836 124.859 C 365.720 124.671,365.884 124.176,366.200 123.759 C 366.516 123.342,366.780 122.685,366.787 122.300 C 366.794 121.915,366.991 121.600,367.224 121.600 C 367.457 121.600,367.552 121.447,367.436 121.259 C 367.320 121.071,367.484 120.576,367.800 120.159 C 368.116 119.742,368.380 118.995,368.387 118.500 C 368.394 118.005,368.580 117.600,368.800 117.600 C 369.020 117.600,369.200 117.240,369.200 116.800 C 369.200 116.360,369.380 116.000,369.600 116.000 C 369.820 116.000,370.000 115.460,370.000 114.800 C 370.000 114.140,370.191 113.600,370.424 113.600 C 370.657 113.600,370.745 113.435,370.620 113.232 C 370.495 113.030,370.664 112.593,370.996 112.261 C 371.328 111.929,371.600 111.462,371.600 111.223 C 371.600 110.984,371.780 110.432,372.000 109.995 C 372.220 109.558,372.580 108.842,372.800 108.405 C 373.020 107.968,373.200 107.426,373.200 107.201 C 373.200 106.976,373.576 105.992,374.035 105.014 C 374.495 104.037,374.737 103.021,374.573 102.757 C 374.385 102.453,374.446 102.381,374.738 102.562 C 375.480 103.020,375.348 97.190,374.593 96.111 C 373.493 94.541,371.560 93.464,369.639 93.352 C 368.628 93.293,367.350 93.117,366.800 92.961 C 365.740 92.661,364.282 92.513,358.800 92.149 C 356.930 92.026,355.229 91.761,355.020 91.562 C 354.811 91.363,353.416 91.200,351.920 91.200 C 350.424 91.200,349.200 91.045,349.200 90.856 C 349.200 90.667,347.895 90.480,346.300 90.441 C 344.705 90.401,343.340 90.196,343.267 89.985 C 343.193 89.773,341.698 89.600,339.943 89.600 C 337.918 89.600,336.843 89.454,337.000 89.200 C 337.156 88.947,336.145 88.800,334.247 88.800 C 332.597 88.800,331.136 88.620,331.000 88.400 C 330.864 88.180,329.458 87.997,327.876 87.994 C 325.872 87.990,325.182 87.870,325.600 87.600 C 326.105 87.274,326.082 87.211,325.453 87.206 C 325.042 87.203,324.190 86.615,323.559 85.900 C 322.305 84.477,322.376 85.111,322.363 75.210 C 322.358 71.783,322.206 70.125,321.878 69.916 C 321.514 69.685,321.519 69.611,321.900 69.606 C 322.175 69.603,322.400 69.330,322.400 69.000 C 322.400 68.670,322.236 68.400,322.036 68.400 C 321.689 68.400,321.385 52.253,321.550 42.500 C 321.598 39.626,321.476 38.000,321.213 38.000 C 320.986 38.000,320.800 37.532,320.800 36.960 C 320.800 35.793,318.483 33.200,317.440 33.200 C 317.088 33.200,316.800 33.020,316.800 32.800 C 316.800 32.278,313.722 32.278,313.400 32.800 C 313.264 33.020,312.634 33.200,312.000 33.200 C 311.366 33.200,310.736 33.380,310.600 33.600 C 310.464 33.820,309.924 34.000,309.400 34.000 C 308.876 34.000,308.336 34.180,308.200 34.400 C 308.064 34.620,307.434 34.800,306.800 34.800 C 306.166 34.800,305.536 34.980,305.400 35.200 C 305.264 35.420,304.623 35.600,303.976 35.600 C 303.329 35.600,302.800 35.780,302.800 36.000 C 302.800 36.220,302.260 36.400,301.600 36.400 C 300.940 36.400,300.400 36.580,300.400 36.800 C 300.400 37.020,299.849 37.200,299.176 37.200 C 298.463 37.200,298.056 37.367,298.200 37.600 C 298.349 37.841,297.812 38.000,296.847 38.000 C 295.967 38.000,295.136 38.180,295.000 38.400 C 294.864 38.620,294.238 38.800,293.610 38.800 C 292.981 38.800,292.404 38.988,292.327 39.218 C 292.251 39.448,291.741 39.659,291.194 39.689 C 290.647 39.718,290.002 39.889,289.760 40.070 C 289.517 40.251,288.842 40.439,288.260 40.487 C 287.677 40.535,287.200 40.715,287.200 40.887 C 287.200 41.059,286.671 41.200,286.024 41.200 C 285.377 41.200,284.736 41.380,284.600 41.600 C 284.464 41.820,283.733 42.000,282.976 42.000 C 282.219 42.000,281.600 42.191,281.600 42.424 C 281.600 42.657,281.428 42.741,281.218 42.611 C 281.007 42.481,280.178 42.649,279.375 42.985 C 278.572 43.320,277.767 43.503,277.585 43.391 C 277.404 43.279,277.142 43.370,277.004 43.593 C 276.866 43.817,276.313 44.000,275.776 44.000 C 275.239 44.000,274.800 44.141,274.800 44.313 C 274.800 44.485,274.315 44.666,273.722 44.715 C 273.130 44.764,272.522 45.003,272.371 45.247 C 272.182 45.553,272.030 45.521,271.880 45.145 C 271.726 44.758,271.654 44.745,271.632 45.100 C 271.509 47.044,265.200 44.545,265.200 42.553 C 265.200 42.249,265.020 42.000,264.800 42.000 C 264.580 42.000,264.400 41.640,264.400 41.200 C 264.400 40.760,264.220 40.400,264.000 40.400 C 263.780 40.400,263.600 40.040,263.600 39.600 C 263.600 39.160,263.420 38.800,263.200 38.800 C 262.980 38.800,262.800 38.440,262.800 38.000 C 262.800 37.560,262.620 37.200,262.400 37.200 C 262.180 37.200,262.000 36.930,262.000 36.600 C 262.000 36.270,261.820 36.000,261.600 36.000 C 261.380 36.000,261.200 35.488,261.200 34.862 C 261.200 34.236,260.844 33.402,260.409 33.009 C 259.975 32.615,259.695 32.169,259.789 32.018 C 259.883 31.866,259.726 31.294,259.441 30.745 C 259.157 30.196,258.802 29.264,258.654 28.673 C 258.506 28.083,258.208 27.600,257.992 27.600 C 257.777 27.600,257.600 27.330,257.600 27.000 C 257.600 26.670,257.420 26.400,257.200 26.400 C 256.980 26.400,256.796 25.995,256.791 25.500 C 256.786 25.005,256.430 24.150,256.000 23.600 C 255.570 23.050,255.214 22.321,255.209 21.980 C 255.197 21.130,254.274 19.207,253.876 19.203 C 253.698 19.201,253.664 19.020,253.800 18.800 C 253.936 18.580,253.862 18.400,253.636 18.400 C 253.410 18.400,253.340 18.100,253.481 17.734 C 253.652 17.287,253.583 17.164,253.268 17.358 C 252.960 17.548,252.800 17.318,252.800 16.686 C 252.800 16.157,252.444 15.402,252.009 15.009 C 251.575 14.615,251.290 14.179,251.376 14.039 C 251.626 13.634,250.176 10.758,249.873 11.060 C 249.723 11.210,249.600 10.853,249.600 10.267 C 249.600 9.680,249.420 9.200,249.200 9.200 C 248.980 9.200,248.800 8.840,248.800 8.400 C 248.800 7.960,248.620 7.600,248.400 7.600 C 248.180 7.600,248.000 7.150,248.000 6.600 C 248.000 6.050,247.820 5.600,247.600 5.600 C 247.380 5.600,247.200 5.366,247.200 5.080 C 247.200 4.344,246.259 2.407,245.900 2.403 C 245.735 2.401,245.600 2.130,245.600 1.800 C 245.600 1.446,245.231 1.197,244.700 1.194 C 244.054 1.189,243.951 1.092,244.334 0.849 C 245.400 0.173,239.835 -0.344,238.000 0.261 M204.000 144.494 C 201.382 145.736,200.524 146.815,193.907 157.200 C 190.613 162.370,186.522 168.760,184.818 171.400 C 169.608 194.952,171.006 192.361,171.004 197.000 C 171.003 200.936,171.381 202.012,173.691 204.642 C 176.770 208.149,179.136 208.800,188.810 208.800 C 192.801 208.800,196.007 208.951,195.933 209.134 C 195.804 209.459,192.630 214.460,187.100 223.051 C 185.615 225.358,184.400 227.312,184.400 227.394 C 184.400 227.476,183.358 229.131,182.085 231.072 C 175.285 241.438,174.552 243.956,176.823 249.132 C 180.814 258.226,191.912 258.838,197.663 250.281 C 198.580 248.917,199.855 247.170,200.495 246.400 C 201.652 245.010,205.068 239.773,206.008 237.951 C 207.004 236.018,205.572 237.902,203.230 241.605 C 201.909 243.692,200.394 245.850,199.862 246.400 C 199.330 246.950,198.268 248.390,197.502 249.600 C 195.485 252.785,192.405 255.200,190.362 255.200 C 189.914 255.200,189.186 255.393,188.745 255.630 C 187.885 256.090,184.913 255.576,182.600 254.566 C 180.005 253.433,176.800 249.490,176.800 247.429 C 176.800 246.889,176.603 246.326,176.362 246.177 C 176.104 246.017,176.016 245.311,176.147 244.453 C 176.693 240.883,176.910 240.000,177.244 240.000 C 177.440 240.000,177.600 239.722,177.600 239.383 C 177.600 239.044,177.960 238.380,178.400 237.908 C 178.840 237.436,179.200 236.813,179.200 236.525 C 179.200 236.236,179.380 236.000,179.600 236.000 C 179.820 236.000,180.000 235.730,180.000 235.400 C 180.000 235.070,180.180 234.800,180.400 234.800 C 180.620 234.800,180.800 234.618,180.800 234.396 C 180.800 234.174,181.822 232.419,183.071 230.496 C 184.321 228.573,185.729 226.370,186.200 225.600 C 186.671 224.830,188.079 222.627,189.329 220.704 C 190.578 218.781,191.600 217.026,191.600 216.804 C 191.600 216.582,191.780 216.400,192.000 216.400 C 192.220 216.400,192.400 216.212,192.400 215.982 C 192.400 215.752,193.300 214.230,194.400 212.600 C 197.391 208.168,197.710 208.400,188.624 208.400 C 183.871 208.400,180.751 208.244,180.600 208.000 C 180.464 207.780,179.924 207.600,179.399 207.600 C 172.310 207.600,168.683 194.460,174.239 188.904 C 174.519 188.624,174.862 188.036,175.001 187.598 C 175.140 187.159,175.422 186.800,175.627 186.800 C 175.832 186.800,176.000 186.614,176.000 186.387 C 176.000 186.159,177.260 184.095,178.800 181.800 C 180.340 179.505,181.600 177.523,181.600 177.396 C 181.600 177.270,181.785 176.949,182.011 176.683 C 182.236 176.417,182.935 175.390,183.563 174.400 C 184.191 173.410,186.256 170.206,188.152 167.279 C 190.049 164.353,191.600 161.788,191.600 161.579 C 191.600 161.371,191.780 161.200,192.000 161.200 C 192.220 161.200,192.400 161.015,192.400 160.789 C 192.400 160.564,193.994 157.997,195.942 155.086 C 197.891 152.175,199.607 149.408,199.756 148.937 C 200.669 146.061,205.112 143.857,209.588 144.060 C 211.314 144.138,212.641 144.067,212.539 143.901 C 212.102 143.194,205.821 143.630,204.000 144.494 M214.428 145.190 C 221.216 148.779,222.522 156.606,217.545 163.872 C 216.915 164.792,216.400 165.654,216.400 165.789 C 216.400 165.924,216.218 166.251,215.995 166.517 C 214.748 168.003,204.400 184.367,204.400 184.852 C 204.400 185.043,207.813 185.200,211.985 185.200 C 220.963 185.200,222.682 185.631,225.741 188.646 C 229.740 192.589,230.471 198.250,227.601 203.048 C 226.513 204.867,220.112 215.027,216.795 220.200 C 214.452 223.855,207.183 235.385,206.646 236.300 C 206.485 236.575,206.543 236.800,206.776 236.800 C 207.009 236.800,207.200 236.612,207.200 236.382 C 207.200 236.152,208.100 234.630,209.200 233.000 C 210.300 231.370,211.200 229.863,211.200 229.651 C 211.200 229.440,211.335 229.207,211.500 229.133 C 211.665 229.060,212.358 228.100,213.041 227.000 C 213.723 225.900,216.378 221.698,218.941 217.663 C 221.503 213.627,223.600 210.162,223.600 209.963 C 223.600 209.763,223.758 209.600,223.951 209.600 C 224.145 209.600,224.527 209.060,224.800 208.400 C 225.073 207.740,225.455 207.200,225.649 207.200 C 225.842 207.200,226.000 207.007,226.000 206.772 C 226.000 206.537,226.501 205.592,227.112 204.672 C 229.540 201.023,230.924 195.418,229.600 194.600 C 229.380 194.464,229.200 194.009,229.200 193.589 C 229.200 191.789,226.544 188.257,224.000 186.672 C 221.329 185.008,220.099 184.812,212.300 184.806 C 208.175 184.803,204.800 184.722,204.800 184.627 C 204.800 184.531,206.060 182.552,207.600 180.228 C 209.140 177.904,210.400 175.904,210.400 175.784 C 210.400 175.665,210.760 175.180,211.200 174.708 C 211.640 174.236,212.000 173.613,212.000 173.325 C 212.000 173.036,212.158 172.800,212.351 172.800 C 212.545 172.800,212.927 172.260,213.200 171.600 C 213.473 170.940,213.855 170.400,214.049 170.400 C 214.242 170.400,214.400 170.230,214.400 170.023 C 214.400 169.815,215.666 167.700,217.214 165.323 C 221.309 159.033,222.028 155.843,220.359 151.381 C 219.240 148.392,215.268 144.356,213.505 144.418 C 213.227 144.427,213.642 144.775,214.428 145.190 " stroke="none" fill="#fcbc04" fill-rule="evenodd"></path><path id="path2" d="M204.200 144.946 C 201.996 145.981,200.176 147.616,199.756 148.937 C 199.607 149.408,197.891 152.175,195.942 155.086 C 193.994 157.997,192.400 160.564,192.400 160.789 C 192.400 161.015,192.220 161.200,192.000 161.200 C 191.780 161.200,191.600 161.371,191.600 161.579 C 191.600 161.788,190.049 164.353,188.152 167.279 C 186.256 170.206,184.191 173.410,183.563 174.400 C 182.935 175.390,182.236 176.417,182.011 176.683 C 181.785 176.949,181.600 177.270,181.600 177.396 C 181.600 177.523,180.340 179.505,178.800 181.800 C 177.260 184.095,176.000 186.159,176.000 186.387 C 176.000 186.614,175.832 186.800,175.627 186.800 C 175.422 186.800,175.140 187.159,175.001 187.598 C 174.862 188.036,174.519 188.624,174.239 188.904 C 168.683 194.460,172.310 207.600,179.399 207.600 C 179.924 207.600,180.464 207.780,180.600 208.000 C 180.751 208.244,183.871 208.400,188.624 208.400 C 197.710 208.400,197.391 208.168,194.400 212.600 C 193.300 214.230,192.400 215.752,192.400 215.982 C 192.400 216.212,192.220 216.400,192.000 216.400 C 191.780 216.400,191.600 216.582,191.600 216.804 C 191.600 217.026,190.578 218.781,189.329 220.704 C 188.079 222.627,186.671 224.830,186.200 225.600 C 185.729 226.370,184.321 228.573,183.071 230.496 C 181.822 232.419,180.800 234.174,180.800 234.396 C 180.800 234.618,180.620 234.800,180.400 234.800 C 180.180 234.800,180.000 235.070,180.000 235.400 C 180.000 235.730,179.820 236.000,179.600 236.000 C 179.380 236.000,179.200 236.236,179.200 236.525 C 179.200 236.813,178.840 237.436,178.400 237.908 C 177.960 238.380,177.600 239.044,177.600 239.383 C 177.600 239.722,177.440 240.000,177.244 240.000 C 176.910 240.000,176.693 240.883,176.147 244.453 C 176.016 245.311,176.104 246.017,176.362 246.177 C 176.603 246.326,176.800 246.889,176.800 247.429 C 176.800 249.490,180.005 253.433,182.600 254.566 C 184.913 255.576,187.885 256.090,188.745 255.630 C 189.186 255.393,189.914 255.200,190.362 255.200 C 192.405 255.200,195.485 252.785,197.502 249.600 C 198.268 248.390,199.330 246.950,199.861 246.400 C 200.744 245.486,203.903 240.743,207.322 235.200 C 208.712 232.947,212.964 226.228,220.614 214.200 C 229.404 200.378,229.974 199.098,229.150 195.029 C 227.621 187.476,223.646 185.200,211.985 185.200 C 207.813 185.200,204.400 185.043,204.400 184.852 C 204.400 184.367,214.748 168.003,215.995 166.517 C 216.218 166.251,216.400 165.924,216.400 165.789 C 216.400 165.654,216.915 164.792,217.545 163.872 C 225.138 152.787,215.778 139.513,204.200 144.946 " stroke="none" fill="#fc6804" fill-rule="evenodd"></path><path id="path3" d="M188.200 77.815 C 177.751 78.965,171.435 80.304,161.998 83.367 C 128.941 94.096,98.638 121.985,87.210 152.200 C 86.877 153.078,86.213 154.702,85.614 156.100 C 83.798 160.342,80.548 172.073,79.569 177.926 C 77.793 188.542,77.217 204.900,78.333 213.000 C 81.373 235.052,87.080 250.529,98.538 267.800 C 114.015 291.126,140.415 310.407,166.200 317.214 C 171.803 318.693,172.659 318.889,178.200 319.964 C 186.554 321.584,199.435 322.499,199.816 321.500 C 199.921 321.225,199.960 304.530,199.903 284.400 L 199.800 247.800 198.074 250.316 C 194.652 255.306,187.691 258.080,183.695 256.047 C 183.313 255.852,182.465 255.447,181.811 255.147 C 180.340 254.470,177.200 251.358,177.200 250.576 C 177.200 250.259,177.020 250.000,176.800 250.000 C 176.580 250.000,176.400 249.651,176.400 249.224 C 176.400 248.797,176.220 248.336,176.000 248.200 C 175.506 247.895,175.467 241.850,175.953 240.895 C 176.148 240.513,176.548 239.660,176.844 239.000 C 177.139 238.340,178.208 236.540,179.220 235.000 C 180.232 233.460,181.177 231.930,181.318 231.600 C 181.460 231.270,183.382 228.239,185.588 224.863 C 187.795 221.488,189.600 218.646,189.600 218.548 C 189.600 218.450,190.653 216.801,191.940 214.885 C 193.228 212.968,194.582 210.815,194.951 210.100 L 195.621 208.800 187.643 208.800 C 178.543 208.800,177.358 208.517,174.241 205.596 C 168.640 200.346,169.008 195.040,175.659 185.112 C 177.387 182.533,178.800 180.321,178.800 180.196 C 178.800 179.862,180.549 177.423,180.900 177.267 C 181.065 177.193,181.200 176.972,181.200 176.774 C 181.200 176.468,183.240 173.226,188.354 165.400 C 188.929 164.520,189.655 163.305,189.968 162.700 C 190.280 162.095,190.685 161.600,190.868 161.600 C 191.050 161.600,191.200 161.413,191.200 161.185 C 191.200 160.956,192.280 159.163,193.600 157.200 C 194.920 155.237,196.000 153.526,196.000 153.397 C 196.000 153.269,196.901 151.829,198.002 150.197 L 200.004 147.230 199.902 112.315 L 199.800 77.400 196.400 77.343 C 194.530 77.312,190.840 77.524,188.200 77.815 " stroke="none" fill="#fcf373" fill-rule="evenodd"></path><path id="path4" d="M200.247 77.486 C 200.111 77.622,200.000 93.282,200.000 112.286 L 200.000 146.838 201.700 145.702 C 202.635 145.077,203.903 144.348,204.519 144.083 C 205.812 143.525,212.077 143.430,213.105 143.953 C 213.487 144.148,214.330 144.553,214.979 144.853 C 220.046 147.204,222.927 156.104,220.140 160.800 C 217.983 164.434,216.574 166.612,216.300 166.733 C 216.135 166.807,216.000 167.042,216.000 167.255 C 216.000 167.614,212.953 172.346,212.429 172.800 C 212.303 172.910,211.944 173.495,211.632 174.100 C 211.320 174.705,210.915 175.200,210.732 175.200 C 210.550 175.200,210.400 175.478,210.400 175.817 C 210.400 176.156,210.040 176.820,209.600 177.292 C 209.160 177.764,208.800 178.387,208.800 178.675 C 208.800 178.964,208.620 179.200,208.400 179.200 C 208.180 179.200,208.000 179.436,208.000 179.725 C 208.000 180.013,207.640 180.636,207.200 181.108 C 206.760 181.580,206.400 182.081,206.400 182.222 C 206.400 182.362,206.028 182.999,205.573 183.638 L 204.746 184.800 212.778 184.800 C 217.196 184.800,221.123 184.959,221.505 185.153 C 221.887 185.348,222.690 185.736,223.289 186.015 C 225.186 186.901,228.400 190.290,228.400 191.405 C 228.400 191.732,228.580 192.000,228.800 192.000 C 229.020 192.000,229.200 192.414,229.200 192.920 C 229.200 193.426,229.397 194.037,229.638 194.278 C 230.294 194.934,229.554 202.000,228.829 202.000 C 228.675 202.000,228.302 202.630,228.000 203.400 C 227.698 204.170,227.304 204.800,227.125 204.800 C 226.946 204.800,226.800 205.036,226.800 205.325 C 226.800 205.613,226.440 206.236,226.000 206.708 C 225.560 207.180,225.200 207.658,225.200 207.770 C 225.200 208.010,222.199 212.784,221.608 213.483 C 221.384 213.749,221.200 214.062,221.200 214.179 C 221.200 214.296,219.850 216.472,218.200 219.013 C 216.550 221.554,215.200 223.806,215.200 224.017 C 215.200 224.228,215.020 224.400,214.800 224.400 C 214.580 224.400,214.400 224.636,214.400 224.925 C 214.400 225.213,214.040 225.836,213.600 226.308 C 213.160 226.780,212.800 227.274,212.800 227.405 C 212.800 227.536,212.080 228.704,211.200 230.000 C 210.320 231.296,209.600 232.546,209.600 232.778 C 209.600 233.010,209.420 233.200,209.200 233.200 C 208.980 233.200,208.800 233.381,208.800 233.603 C 208.800 233.941,205.530 239.160,202.735 243.284 C 202.331 243.880,202.000 244.493,202.000 244.646 C 202.000 244.799,201.550 245.514,201.000 246.236 L 200.000 247.547 200.000 284.550 C 200.000 304.901,200.135 321.631,200.300 321.728 C 201.261 322.288,217.822 320.768,223.400 319.609 C 224.500 319.380,225.940 319.084,226.600 318.950 C 231.540 317.951,239.192 315.622,244.300 313.563 C 244.795 313.363,245.605 313.038,246.100 312.841 C 258.615 307.846,272.319 299.209,282.000 290.217 C 286.841 285.721,292.576 279.717,294.498 277.135 C 295.097 276.329,295.816 275.424,296.094 275.125 C 301.329 269.492,309.989 254.317,313.970 243.800 C 314.469 242.480,315.029 241.040,315.213 240.600 C 315.567 239.753,316.983 235.416,317.563 233.400 C 318.498 230.149,319.908 223.740,320.554 219.800 C 323.860 199.647,321.678 174.725,315.198 158.600 C 315.021 158.160,314.291 156.270,313.575 154.400 C 309.963 144.963,300.241 127.996,296.386 124.400 C 296.268 124.290,295.068 122.850,293.720 121.200 C 282.338 107.267,265.279 94.488,248.600 87.398 C 247.720 87.024,246.640 86.562,246.200 86.371 C 236.237 82.040,220.652 78.448,209.000 77.797 C 206.800 77.674,203.986 77.498,202.747 77.406 C 201.508 77.314,200.383 77.350,200.247 77.486 M355.900 91.882 C 356.395 91.978,357.205 91.978,357.700 91.882 C 358.195 91.787,357.790 91.709,356.800 91.709 C 355.810 91.709,355.405 91.787,355.900 91.882 M176.014 373.222 C 176.006 373.345,176.450 374.055,177.000 374.800 C 177.550 375.545,177.999 375.985,177.998 375.778 C 177.996 375.372,176.038 372.851,176.014 373.222 " stroke="none" fill="#fceb04" fill-rule="evenodd"></path></g></svg>